
[img]http://i.imgur.com/OZTkp.jpg[/img]



Title: Carnage 2011 CAM XviD - VISUALiSE
Format: Xvid
Language: English
Subtitles: No
Imdb: http://www.imdb.com/title/tt1692486/

Plot:
Tells the story of two sets of parents who decide 
to have a cordial meeting after their sons are 
involved in a schoolyard brawl. 

Sources:
Video: TNZ Files - Many Thanks 
Audio: Evolution - Many Thanks 

Release Notes:
VISUALiSE Bringing you 
Carnage 2011 CAM XviD - VISUALiSE
Not much to say here played with RGB 
added contrast and little brightness
ran sum filters and mux audio back
to encode...

enjoy. 

Info:

Video
ID                               : 0
Format                           : MPEG-4 Visual
Format profile                   : Advanced Simple@L5
Format settings, BVOP            : 2
Format settings, QPel            : No
Format settings, GMC             : No warppoints
Format settings, Matrix          : Default (H.263)
Codec ID                         : XVID
Codec ID/Hint                    : XviD
Duration                         : 1h 15mn
Bit rate                         : 1 499 Kbps
Width                            : 720 pixels
Height                           : 304 pixels
Display aspect ratio             : 2.35:1
Frame rate                       : 25.000 fps
Color space                      : YUV
Chroma subsampling               : 4:2:0
Bit depth                        : 8 bits
Scan type                        : Progressive
Compression mode                 : Lossy
Bits/(Pixel*Frame)               : 0.274
Stream size                      : 807 MiB (92%)

Audio
ID                               : 1
Format                           : MPEG Audio
Format version                   : Version 1
Format profile                   : Layer 3
Mode                             : Joint stereo
Mode extension                   : MS Stereo
Codec ID                         : 55
Codec ID/Hint                    : MP3
Duration                         : 1h 15mn
Bit rate mode                    : Variable
Bit rate                         : 120 Kbps
Channel(s)                       : 2 channels
Sampling rate                    : 48.0 KHz
Compression mode                 : Lossy
Stream size                      : 64.5 MiB (7%)
Alignment                        : Aligned on interleaves
Interleave, duration             : 24 ms (0.60 video frame)


[img]http://i.imgur.com/bhJkE.png[/img]
[img]http://i.imgur.com/LQywT.png[/img]
[img]http://i.imgur.com/BxXXW.png[/img]
[img]http://i.imgur.com/4aHiS.png[/img]